<svg width="140" height="39" viewBox="0 0 140 39" fill="none" xmlns="http://www.w3.org/2000/svg">
<path d="M13.1836 30.4688C9.45964 30.4688 6.55599 29.5898 4.47266 27.832C2.40234 26.0742 1.36719 23.6133 1.36719 20.4492H7.16797C7.20703 22.0508 7.76042 23.3008 8.82812 24.1992C9.89583 25.0846 11.3607 25.5273 13.2227 25.5273C14.8893 25.5273 16.2305 25.1888 17.2461 24.5117C18.2617 23.8346 18.7695 22.9297 18.7695 21.7969C18.7695 20.8594 18.3594 20.0977 17.5391 19.5117C16.7318 18.9258 15.4036 18.431 13.5547 18.0273L10.4883 17.3633C4.78516 16.1263 1.93359 13.431 1.93359 9.27734C1.93359 7.50651 2.39583 5.96354 3.32031 4.64844C4.24479 3.32031 5.53385 2.28516 7.1875 1.54297C8.84115 0.800781 10.7747 0.429688 12.9883 0.429688C16.3346 0.429688 18.9844 1.26302 20.9375 2.92969C22.9036 4.59635 23.9323 6.89453 24.0234 9.82422H18.3984C18.2943 8.44401 17.7604 7.35677 16.7969 6.5625C15.8333 5.76823 14.5703 5.37109 13.0078 5.37109C11.5234 5.37109 10.306 5.70964 9.35547 6.38672C8.41797 7.0638 7.94922 7.92969 7.94922 8.98438C7.94922 9.88281 8.33984 10.6055 9.12109 11.1523C9.90234 11.6992 11.1849 12.168 12.9688 12.5586L15.7617 13.1641C18.8607 13.8281 21.1263 14.8242 22.5586 16.1523C24.0039 17.4674 24.7266 19.2188 24.7266 21.4062C24.7266 24.2057 23.6979 26.4193 21.6406 28.0469C19.5833 29.6615 16.7643 30.4688 13.1836 30.4688ZM32.6758 30L26.3281 9.375H32.3438L34.2383 16.582C34.5508 17.806 34.8503 19.0625 35.1367 20.3516C35.4232 21.6406 35.7096 22.9232 35.9961 24.1992C36.3086 22.9232 36.6211 21.6406 36.9336 20.3516C37.2461 19.0625 37.5651 17.806 37.8906 16.582L39.8633 9.375H45.0586L47.0117 16.582C47.3372 17.793 47.6562 19.043 47.9688 20.332C48.2812 21.6211 48.5872 22.9036 48.8867 24.1797C49.1732 22.9036 49.4531 21.6276 49.7266 20.3516C50.013 19.0625 50.306 17.806 50.6055 16.582L52.4805 9.375H58.5938L52.2461 30H46.2891L43.8867 21.7969C43.6393 20.9375 43.3984 20.0521 43.1641 19.1406C42.9297 18.2292 42.6953 17.3112 42.4609 16.3867C42.2266 17.3112 41.9922 18.2292 41.7578 19.1406C41.5234 20.0521 41.276 20.9375 41.0156 21.7969L38.5938 30H32.6758ZM60.8594 30V9.375H66.6211V30H60.8594ZM63.7305 6.77734C62.7799 6.77734 61.9922 6.49089 61.3672 5.91797C60.7422 5.33203 60.4297 4.59635 60.4297 3.71094C60.4297 2.82552 60.7422 2.09635 61.3672 1.52344C61.9922 0.9375 62.7799 0.644531 63.7305 0.644531C64.668 0.644531 65.4492 0.9375 66.0742 1.52344C66.6992 2.09635 67.0117 2.82552 67.0117 3.71094C67.0117 4.59635 66.6992 5.33203 66.0742 5.91797C65.4492 6.49089 64.668 6.77734 63.7305 6.77734ZM82.7148 9.375V13.8867H78.4961V30H72.7539V13.8867H69.0234V9.375H72.7539V6.69922C72.7539 2.83203 74.987 0.898438 79.4531 0.898438H82.7148V5.41016H80.7617C79.9284 5.41016 79.3424 5.58594 79.0039 5.9375C78.6654 6.27604 78.4961 6.85547 78.4961 7.67578V9.375H82.7148ZM95.7227 9.375V13.8867H91.5039V23.6328C91.5039 24.3359 91.6406 24.8242 91.9141 25.0977C92.2005 25.3581 92.7344 25.4883 93.5156 25.4883H95.7227V30H92.3633C90.0977 30 88.4245 29.5573 87.3438 28.6719C86.276 27.7865 85.7422 26.4062 85.7422 24.5312V13.8867H82.1875V9.375H85.7422V3.75H91.5039V9.375H95.7227Z" fill="url(#paint0_linear_8_7)"/>
<path d="M101.883 30.3516C100.971 30.3516 100.19 30.0326 99.5391 29.3945C98.901 28.7435 98.582 27.9557 98.582 27.0312C98.582 26.1198 98.901 25.3385 99.5391 24.6875C100.19 24.0365 100.971 23.7109 101.883 23.7109C102.807 23.7109 103.589 24.0365 104.227 24.6875C104.878 25.3385 105.203 26.1198 105.203 27.0312C105.203 27.9557 104.878 28.7435 104.227 29.3945C103.589 30.0326 102.807 30.3516 101.883 30.3516ZM114.598 0.898438V30H108.836V0.898438H114.598ZM119.5 38.1641V33.6133H122.117C122.807 33.6133 123.315 33.444 123.641 33.1055C123.979 32.7799 124.285 32.2201 124.559 31.4258L125.125 29.9219L117.195 9.375H123.23L126.688 19.5703C126.922 20.3125 127.15 21.0547 127.371 21.7969C127.605 22.5391 127.833 23.2812 128.055 24.0234C128.276 23.2812 128.504 22.5391 128.738 21.7969C128.973 21.0417 129.207 20.2995 129.441 19.5703L132.918 9.375H138.895L129.812 33.1836C129.161 34.9023 128.315 36.1589 127.273 36.9531C126.232 37.7604 124.91 38.1641 123.309 38.1641H119.5Z" fill="#2B2B2B"/>
<defs>
<linearGradient id="paint0_linear_8_7" x1="48.5" y1="30" x2="48.5" y2="1" gradientUnits="userSpaceOnUse">
<stop stop-color="#E60023"/>
<stop offset="1" stop-color="#EB4242"/>
</linearGradient>
</defs>
</svg>
