<svg width="157" height="96" viewBox="0 0 157 96" fill="none" xmlns="http://www.w3.org/2000/svg">
<path d="M99.5487 10.2625H57.5488V85.7375H99.5487V10.2625Z" fill="#FF5F00"/>
<path d="M60.2158 47.9999C60.2092 40.7311 61.8563 33.5561 65.0326 27.018C68.2089 20.4799 72.8309 14.7501 78.549 10.2624C71.468 4.69659 62.964 1.2353 54.0088 0.274141C45.0537 -0.687021 36.0088 0.890695 27.908 4.82703C19.8071 8.76336 12.9772 14.8995 8.1988 22.534C3.42044 30.1685 0.886475 38.9934 0.886475 47.9999C0.886475 57.0065 3.42044 65.8314 8.1988 73.4659C12.9772 81.1004 19.8071 87.2365 27.908 91.1728C36.0088 95.1091 45.0537 96.6869 54.0088 95.7257C62.964 94.7645 71.468 91.3033 78.549 85.7374C72.831 81.2497 68.2089 75.5199 65.0327 68.9818C61.8564 62.4437 60.2093 55.2687 60.2158 47.9999Z" fill="#EB001B"/>
<path d="M156.209 47.9999C156.21 57.0064 153.676 65.8312 148.898 73.4657C144.12 81.1002 137.29 87.2363 129.189 91.1727C121.089 95.1091 112.044 96.6868 103.089 95.7257C94.1338 94.7645 85.6299 91.3032 78.5491 85.7374C84.2621 81.2452 88.8806 75.5145 92.0563 68.9774C95.232 62.4403 96.8821 55.2676 96.8821 47.9999C96.8821 40.7323 95.232 33.5595 92.0563 27.0224C88.8806 20.4853 84.2621 14.7546 78.5491 10.2624C85.6299 4.69657 94.1338 1.23528 103.089 0.274128C112.044 -0.687022 121.089 0.890764 129.189 4.82714C137.29 8.76351 144.12 14.8996 148.898 22.5341C153.676 30.1686 156.21 38.9935 156.209 47.9999Z" fill="#F79E1B"/>
<path d="M151.63 77.7434V76.1982H152.253V75.8834H150.666V76.1982H151.289V77.7434H151.63ZM154.71 77.7434V75.8804H154.224L153.665 77.1618L153.105 75.8804H152.618V77.7434H152.962V76.3381L153.486 77.5497H153.843L154.367 76.335V77.7434H154.71Z" fill="#F79E1B"/>
</svg>
